<?xml version="1.0" standalone="no"?>
<!DOCTYPE svg PUBLIC "-//W3C//DTD SVG 20010904//EN" "http://www.w3.org/TR/2001/REC-SVG-20010904/DTD/svg10.dtd">
<!-- Created using Krita: https://krita.org -->
<svg xmlns="http://www.w3.org/2000/svg" 
    xmlns:xlink="http://www.w3.org/1999/xlink"
    xmlns:krita="http://krita.org/namespaces/svg/krita"
    xmlns:sodipodi="http://sodipodi.sourceforge.net/DTD/sodipodi-0.dtd"
    width="96pt"
    height="144pt"
    viewBox="0 0 96 144">
<defs/>
<path id="shape0" transform="matrix(0.239999990463257 0 0 0.239999990463257 5.05191941343632 39.2776429287508)" fill="#5865f2" stroke-opacity="0" stroke="#000000" stroke-width="0" stroke-linecap="square" stroke-linejoin="bevel" d="M303.444 23.0303C303.344 22.8375 303.18 22.6864 302.979 22.6042C279.775 11.9576 255.287 4.36572 230.129 0.0186161C229.9 -0.0238697 229.664 0.00679332 229.454 0.10622C229.244 0.205646 229.071 0.368858 228.959 0.572512C225.624 6.62453 222.597 12.8409 219.889 19.198C192.771 15.0815 165.186 15.0815 138.067 19.198C135.342 12.8248 132.266 6.60682 128.855 0.572512C128.738 0.373278 128.563 0.213832 128.355 0.115049C128.146 0.0162663 127.912 -0.017345 127.684 0.0186161C102.524 4.35659 78.0342 11.9491 54.8326 22.6048C54.634 22.689 54.4663 22.8328 54.3529 23.0163C7.95412 92.307 -4.75629 159.894 1.479 226.644C1.49654 226.807 1.5468 226.966 1.6268 227.109C1.70678 227.253 1.81488 227.379 1.94464 227.481C28.9619 247.485 59.1822 262.755 91.3137 272.638C91.5401 272.705 91.7817 272.702 92.0057 272.629C92.2303 272.555 92.4269 272.414 92.5694 272.226C99.4705 262.836 105.585 252.892 110.852 242.497C110.949 242.306 110.99 242.092 110.97 241.879C110.95 241.666 110.87 241.463 110.739 241.294C110.609 241.124 110.433 240.995 110.232 240.922C100.589 237.232 91.2534 232.785 82.3132 227.621C82.0959 227.493 81.9267 227.297 81.8317 227.063C81.7368 226.829 81.7215 226.571 81.7879 226.328C81.8548 226.085 81.9997 225.87 82.2006 225.718C84.0765 224.313 85.9537 222.851 87.745 221.374C87.9039 221.242 88.0968 221.158 88.3007 221.131C88.5052 221.104 88.7134 221.133 88.9015 221.218C147.474 247.949 210.886 247.949 268.765 221.218C268.954 221.128 269.164 221.094 269.372 221.119C269.579 221.144 269.775 221.228 269.937 221.36C271.728 222.837 273.605 224.313 275.495 225.718C275.696 225.869 275.843 226.082 275.912 226.325C275.98 226.567 275.967 226.826 275.874 227.06C275.78 227.294 275.612 227.491 275.396 227.621C266.476 232.828 257.132 237.273 247.464 240.908C247.263 240.984 247.088 241.116 246.959 241.287C246.829 241.459 246.751 241.663 246.733 241.877C246.714 242.091 246.757 242.306 246.856 242.497C252.21 252.835 258.316 262.766 265.124 272.21C265.262 272.403 265.458 272.549 265.683 272.625C265.909 272.702 266.152 272.705 266.38 272.636C298.569 262.786 328.842 247.515 355.893 227.481C356.025 227.385 356.134 227.261 356.215 227.119C356.295 226.977 356.344 226.82 356.359 226.658C363.824 149.488 343.862 82.455 303.444 23.0303ZM119.599 186C101.965 186 87.4346 169.817 87.4346 149.943C87.4346 130.068 101.683 113.884 119.599 113.884C137.656 113.884 152.046 130.209 151.764 149.941C151.764 169.817 137.515 186 119.599 186ZM238.523 186C220.889 186 206.358 169.817 206.358 149.943C206.358 130.068 220.607 113.884 238.523 113.884C256.58 113.884 270.969 130.209 270.688 149.941C270.688 169.817 256.58 186 238.523 186Z" sodipodi:nodetypes="ccccccccccccccccccccccccccccccccccccccccccccccccccccccccc"/>
</svg>
